---General
Complete name                    : Yanni Live at the Acropolis (1994).mkv
Format                           : Matroska
Format version                   : Version 2
File size                        : 534 MiB
Duration                         : 1h 2mn
Overall bit rate                 : 1 202 Kbps
Writing application              : Lavf52.94.0
Writing library                  : Lavf52.94.0
---Video
ID                               : 1
Format                           : AVC
Format/Info                      : Advanced Video Codec
Format profile                   : High@L3.0
Format settings, CABAC           : Yes
Format settings, ReFrames        : 2 frames
Format settings, GOP             : M=1, N=45
Codec ID                         : V_MPEG4/ISO/AVC
Duration                         : 1h 2mn
Bit rate                         : 1 200 Kbps
Width                            : 720 pixels
Height                           : 480 pixels
Display aspect ratio             : 3:2
Frame rate mode                  : Variable
Frame rate                       : 29.970 fps
Standard                         : NTSC
Color space                      : YUV
Chroma subsampling               : 4:2:0
Bit depth                        : 8 bits
Scan type                        : Progressive
Bits/(Pixel*Frame)               : 0.116
Stream size                      : 523 MiB (98%)
Writing library                  : x264 core 112 r1834 a51816a

---General
Complete name                    : Yanni Live at the Acropolis (1994) - 5.1ch.AC3
Format                           : AC-3
Format/Info                      : Audio Coding 3
File size                        : 265 MiB
Duration                         : 1h 36mn
Overall bit rate                 : 384 Kbps
---Audio
Format                           : AC-3
Format/Info                      : Audio Coding 3
Mode extension                   : CM (complete main)
Duration                         : 1h 36mn
Bit rate mode                    : Constant
Bit rate                         : 384 Kbps
Channel(s)                       : 6 channels
Channel positions                : Front: L C R, Side: L R, LFE
Sampling rate                    : 48.0 KHz
Bit depth                        : 16 bits
Compression mode                 : Lossy
Stream size                      : 265 MiB (100%)

---General
Complete name                    : Yanni Live at the Acropolis (1994) - 2ch.AC3
Format                           : AC-3
Format/Info                      : Audio Coding 3
File size                        : 132 MiB
Duration                         : 1h 36mn
Overall bit rate                 : 192 Kbps
---Audio
Format                           : AC-3
Format/Info                      : Audio Coding 3
Mode extension                   : CM (complete main)
Duration                         : 1h 36mn
Bit rate mode                    : Constant
Bit rate                         : 192 Kbps
Channel(s)                       : 2 channels
Channel positions                : Front: L R
Sampling rate                    : 48.0 KHz
Bit depth                        : 16 bits
Compression mode                 : Lossy
Stream size                      : 132 MiB (100%)
